<?xml version="1.0" encoding="utf-8"?>
<!-- Generator: Adobe Illustrator 24.1.3, SVG Export Plug-In . SVG Version: 6.00 Build 0)  -->
<svg version="1.1" id="Layer_1" xmlns="http://www.w3.org/2000/svg" xmlns:xlink="http://www.w3.org/1999/xlink" x="0px" y="0px"
	 viewBox="0 0 100 100" style="enable-background:new 0 0 100 100;" xml:space="preserve">
<style type="text/css">
	.st0{fill:#7C7CF8;}
</style>
<path class="st0" d="M32.8,80.2H24c-5.6,0-10.1-4.6-10.1-10.1v-8.8c0-5.6,4.6-10.1,10.1-10.1h8.8c5.6,0,10.1,4.6,10.1,10.1v8.8
	C42.9,75.7,38.4,80.2,32.8,80.2z"/>
<path class="st0" d="M68.9,80.2h-8.8c-5.6,0-10.1-4.6-10.1-10.1v-8.8c0-5.6,4.6-10.1,10.1-10.1h8.8c5.6,0,10.1,4.6,10.1,10.1v8.8
	C79,75.7,74.4,80.2,68.9,80.2z"/>
<path class="st0" d="M68.9,46h-8.8C54.6,46,50,41.5,50,35.9v-8.8C50,21.6,54.6,17,60.1,17h8.8C74.4,17,79,21.6,79,27.1v8.8
	C79,41.5,74.4,46,68.9,46z"/>
<path class="st0" d="M32.8,46H24c-5.6,0-10.1-4.6-10.1-10.1v-8.8C13.9,21.6,18.5,17,24,17h8.8c5.6,0,10.1,4.6,10.1,10.1v8.8
	C42.9,41.5,38.4,46,32.8,46z"/>
</svg>
